<svg width="16" height="16" viewBox="0 0 16 16" fill="none" xmlns="http://www.w3.org/2000/svg">
<g clip-path="url(#clip0_100_4287)">
<path d="M8.00016 1.3335C9.29359 1.33326 10.5592 1.70928 11.6426 2.41573C12.7261 3.12218 13.5806 4.12855 14.1021 5.31219C14.6236 6.49582 14.7896 7.8056 14.5797 9.08189C14.3698 10.3582 13.7932 11.5458 12.9202 12.5002M8.00016 5.3335V10.6668M10.6668 8.00016H5.3335M1.66683 5.91683C1.4544 6.5626 1.34198 7.23707 1.3335 7.91683M1.88688 10.6668C2.26122 11.528 2.81327 12.3005 3.50688 12.9335M3.09098 3.49012C3.27701 3.2876 3.47539 3.09679 3.68498 2.91878M5.76286 14.2802C7.42532 14.8724 9.25479 14.7813 10.8502 14.0269" stroke="#474747" stroke-width="1.33" stroke-linecap="round" stroke-linejoin="round"/>
</g>
<defs>
<clipPath id="clip0_100_4287">
<rect width="16" height="16" fill="white"/>
</clipPath>
</defs>
</svg>
