<svg width="1366" height="224" viewBox="0 0 1366 224" fill="none" xmlns="http://www.w3.org/2000/svg">
<path d="M264.595 222.826C257.808 222.505 246.374 222.032 239.186 221.774C213.593 220.856 197.769 220.187 195.629 219.933C194.434 219.792 189.701 219.498 185.11 219.281C180.519 219.064 175.624 218.72 174.232 218.517C172.84 218.313 169.578 218.041 166.983 217.911C158.426 217.483 150.563 216.658 144.335 215.535C141.921 215.1 139.62 214.875 139.222 215.036C138.823 215.197 138.72 215.093 138.992 214.805C139.326 214.451 136.91 214.216 131.512 214.08C127.127 213.969 123.055 213.74 122.463 213.571C121.872 213.401 121.203 212.47 120.978 211.502C120.511 209.499 119.747 209.19 112.809 208.205C110.223 207.838 106.162 207.064 103.784 206.485C101.406 205.906 98.6013 205.303 97.5516 205.144C94.5543 204.691 94.6074 203.578 97.7272 201.462C101.008 199.236 103.594 198.309 108.858 197.473C112.271 196.931 116.942 194.683 116.983 193.562C116.997 193.186 113.869 192.455 109.414 191.793C108.221 191.615 104.309 191.293 100.721 191.076C97.1329 190.86 92.3614 190.318 90.1175 189.873C87.6237 189.378 82.6094 189.003 77.2183 188.907C67.6443 188.739 63.5503 187.952 62.946 186.167C62.7413 185.562 60.9545 184.605 58.403 183.734C56.0899 182.944 54.3722 182.113 54.5858 181.887C54.7994 181.66 54.5447 181.57 54.0198 181.687C51.6622 182.211 48.152 181.056 46.9091 179.347C45.5545 177.485 46.1924 175.768 48.2255 175.804C48.8109 175.814 49.2987 175.653 49.3095 175.445C49.3205 175.238 51.536 175.041 54.2334 175.009C56.9307 174.977 59.2545 174.734 59.3976 174.471C59.5406 174.207 60.265 174.001 61.0073 174.015C61.7497 174.028 62.5675 173.815 62.8247 173.543C63.0819 173.27 63.6192 173.053 64.0189 173.06C64.4185 173.067 64.579 173.25 64.3756 173.465C64.1721 173.681 64.964 173.865 66.1353 173.875C67.393 173.886 68.2749 173.623 68.2892 173.233C68.3029 172.87 68.6353 172.719 69.0286 172.897C69.422 173.075 69.7517 173.005 69.7614 172.742C69.79 171.965 67.8986 171.648 64.5537 171.869C62.8326 171.982 59.9626 171.792 58.1758 171.445C56.3891 171.098 54.4391 170.74 53.8426 170.649C53.2461 170.558 52.1873 170.303 51.4896 170.082C50.7919 169.862 49.568 169.787 48.7698 169.917C46.9136 170.218 46.3054 169.522 47.7407 168.739C48.3483 168.407 48.8432 168.334 48.8404 168.575C48.8377 168.817 49.084 168.792 49.3877 168.521C50.3221 167.685 53.258 166.774 53.2378 167.325C53.2268 167.604 53.5654 167.839 53.9886 167.846C54.4118 167.854 54.6049 167.678 54.4178 167.456C53.935 166.883 59.7692 166.895 61.2304 167.471C62.0108 167.778 62.7467 167.749 63.2917 167.39C64.2705 166.746 67.1994 166.532 66.6186 167.148C65.9419 167.865 68.2789 167.627 69.217 166.883C69.885 166.354 70.5752 166.301 71.9057 166.679C74.2056 167.331 74.9871 167.33 73.6198 166.677C72.8167 166.293 73.1851 166.186 75.0897 166.249C76.4876 166.296 80.0931 166.121 83.1019 165.861C86.1107 165.601 89.4479 165.372 90.518 165.354C93.6995 165.3 92.8467 163.603 88.6012 161.54C86.1757 160.362 85.0286 159.485 85.3057 159.02C85.5764 158.567 86.0237 158.478 86.5374 158.776C86.9811 159.034 88.0048 159.074 88.8122 158.865C89.6197 158.656 91.4996 158.49 92.9897 158.497C95.0869 158.507 95.9952 158.213 97.0098 157.198C98.6579 155.548 98.8955 154.614 97.9856 153.361C97.5906 152.817 97.5628 152.505 97.924 152.669C98.2851 152.832 99.0439 152.136 99.61 151.122C100.176 150.108 101.008 149.118 101.459 148.923C101.91 148.727 100.971 148.537 99.3725 148.501C97.2262 148.451 96.7562 148.311 97.5745 147.965C98.4146 147.61 98.1094 147.484 96.3113 147.447C95.0072 147.42 93.38 147.182 92.6953 146.919C92.0106 146.657 88.4466 145.551 84.7754 144.462C77.4129 142.279 73.1307 141.736 57.4777 140.998C45.4823 140.432 44.1347 140.305 42.2548 139.568C40.341 138.817 30.449 137.603 24.1663 137.347C20.8731 137.213 17.9454 136.754 15.8486 136.042C14.069 135.437 10.9856 134.761 8.99659 134.54C5.04121 134.099 -0.0220569 132.756 7.22856e-05 132.154C0.00826829 131.945 1.90986 131.38 4.22697 130.899C7.78765 130.158 10.8025 130.058 23.7 130.255C34.0027 130.412 39.867 130.295 41.7517 129.895C44.4733 129.317 47.0803 129.451 53.725 130.508C55.4377 130.781 60.3091 131.106 64.5503 131.232C68.7914 131.357 72.8839 131.705 73.6447 132.004C74.4581 132.325 76.1246 132.411 77.6903 132.213C79.1545 132.029 80.6396 131.931 80.9905 131.996C82.2866 132.236 104.411 132.47 106.877 132.269C111.056 131.928 116.3 131.72 123.527 131.607C127.275 131.549 130.705 131.262 131.149 130.97C131.937 130.451 130.606 130.163 128.215 130.336C127.714 130.372 127.313 130.141 127.325 129.822C127.337 129.503 126.875 129.358 126.299 129.5C125.723 129.642 124.861 129.413 124.383 128.993C123.684 128.378 123.39 128.354 122.891 128.87C122.384 129.394 122.271 129.39 122.282 128.849C122.29 128.43 121.788 128.288 120.917 128.463C119.999 128.647 119.386 128.44 119.081 127.844C118.829 127.352 118.977 126.874 119.41 126.783C120.53 126.546 122.403 125.248 122.424 124.694C122.452 123.923 119.611 122.103 118.854 122.409C118.468 122.565 118.349 122.361 118.591 121.955C118.926 121.395 118.637 121.282 117.387 121.485C116.081 121.697 115.843 121.585 116.227 120.941C116.944 119.739 115.418 119.323 114.171 120.379C113.488 120.958 113.237 121.018 113.486 120.543C113.926 119.707 110.577 118.299 109.339 118.799C108.912 118.971 108.822 118.856 109.13 118.529C109.427 118.215 109.324 117.951 108.9 117.944C108.477 117.936 108.118 118.27 108.103 118.685C108.064 119.751 106.626 119.605 106.604 118.533C106.588 117.784 106.491 117.802 105.963 118.648C105.621 119.196 105.437 119.769 105.554 119.921C105.67 120.073 105.133 120.22 104.36 120.246C102.66 120.305 102.575 119.906 104.13 119.16C105.033 118.726 104.392 118.624 101.182 118.69C98.7591 118.739 97.2599 118.583 97.5187 118.309C97.762 118.051 97.3055 117.951 96.4931 118.083C95.6419 118.221 95.0383 118.073 95.0509 117.729C95.0632 117.403 94.6841 117.294 94.2092 117.486C93.6026 117.731 93.522 117.551 93.9382 116.881C94.264 116.357 94.6166 115.62 94.7218 115.245C95.0491 114.076 96.9113 113.766 99.1684 114.505C100.354 114.893 100.914 115.221 100.414 115.235C98.6284 115.284 99.5033 116.267 101.361 116.3C102.728 116.324 103.149 116.126 102.874 115.587C102.663 115.177 102.825 114.706 103.233 114.541C103.707 114.35 103.645 113.945 103.061 113.42C102.288 112.726 102.324 112.649 103.292 112.919C103.921 113.095 104.906 113.02 105.479 112.753C106.302 112.369 106.25 112.322 105.23 112.53C104.142 112.751 104.023 112.579 104.474 111.43C104.768 110.681 105.277 109.951 105.606 109.809C106.675 109.345 105.553 107.355 104.384 107.642C103.626 107.828 103.382 107.625 103.572 106.963C103.77 106.272 103.452 106.041 102.386 106.104C101.584 106.151 101.344 106.07 101.851 105.925C102.359 105.78 102.611 105.467 102.41 105.229C102.21 104.991 102.715 104.489 103.533 104.113C104.35 103.737 104.809 103.277 104.552 103.089C104.295 102.902 104.711 102.756 105.477 102.765C106.621 102.779 106.682 102.695 105.817 102.294C105.125 101.974 104.575 102.005 104.217 102.385C103.917 102.703 103.468 102.816 103.221 102.636C102.767 102.305 104.194 100.195 105.175 99.7456C105.977 99.3779 106.98 97.0866 106.201 97.4014C105.833 97.5502 105.165 97.2418 104.718 96.7162C103.994 95.8656 104.121 95.7744 105.875 95.8877C107.117 95.968 107.788 95.7812 107.688 95.3826C107.601 95.0348 107.773 94.7814 108.072 94.8195C109.565 95.0099 110.438 94.7275 110.463 94.0465C110.479 93.6312 110.837 93.2976 111.261 93.305C111.684 93.3126 111.853 93.1082 111.636 92.851C111.42 92.5938 111.657 92.2759 112.165 92.1446C112.721 92.0005 112.583 91.8811 111.817 91.8436C111.118 91.8094 110.553 91.6076 110.561 91.3951C110.569 91.1827 109.431 91.026 108.032 91.0468C106.634 91.0676 105.678 90.8848 105.909 90.6403C106.14 90.3959 105.636 90.1837 104.789 90.1687C103.943 90.1538 103.461 89.9186 103.718 89.6461C103.975 89.3736 103.804 89.144 103.338 89.1358C102.851 89.1273 102.699 88.7729 102.979 88.3026C103.387 87.6185 103.282 87.5855 102.337 88.1012C101.41 88.607 101.212 88.5816 101.235 87.9598C101.25 87.543 101.921 87.0949 102.726 86.9643C103.606 86.8212 104.204 86.3033 104.228 85.6632C104.261 84.7676 103.95 84.6405 102.258 84.8576C100.609 85.0691 100.476 85.0205 101.517 84.5866C102.694 84.0954 102.677 83.9679 101.27 82.7876C100.437 82.0889 99.2696 81.5087 98.6756 81.4982C96.4891 81.4596 98.4644 80.9643 101.404 80.814C103.175 80.7234 104.257 80.8516 104.002 81.1216C103.762 81.3762 103.892 81.5902 104.292 81.5973C104.691 81.6039 105.192 81.4259 105.405 81.2007C105.617 80.9756 106.868 80.8527 108.184 80.9276C109.5 81.0025 110.964 80.8646 111.438 80.6212C111.966 80.3493 112.472 80.3859 112.751 80.7161C113.057 81.08 113.647 81.0991 114.576 80.7753C115.331 80.5122 116.709 80.3296 117.637 80.3695C120.216 80.4803 129.14 80.0864 129.764 79.8342C130.25 79.6376 138.207 79.0774 140.643 79.0682C141.918 79.0634 141.866 76.6959 140.575 75.997C139.988 75.6791 139.458 74.7896 139.397 74.0205C139.329 73.1518 138.946 72.706 138.386 72.8437C137.857 72.9735 137.651 72.7856 137.886 72.3904C138.149 71.9495 137.537 71.5871 136.12 71.3451C133.738 70.9383 132.073 69.8099 132.769 69.073C133.019 68.8075 132.575 68.7058 131.749 68.8399C130.707 69.0092 130.295 68.83 130.317 68.2168C130.335 67.7433 129.699 67.2259 128.905 67.067C127.293 66.7443 127.056 66.1246 128.344 65.6038C128.879 65.3879 128.991 65.4774 128.645 65.8437C128.342 66.1651 128.364 66.4003 128.695 66.3665C130.252 66.2073 131.107 66.5251 131.08 67.2532C131.042 68.2909 132.801 67.9191 133.152 66.8152C133.301 66.3487 133.151 65.995 132.818 66.0292C130.805 66.236 129.678 65.8228 129.712 64.8908C129.733 64.3208 130.072 64.0002 130.466 64.1783C130.859 64.3565 131.198 64.0358 131.219 63.4658C131.24 62.8958 131.713 62.4374 132.269 62.4473C132.826 62.4571 133.489 62.117 133.743 61.6916C133.997 61.2661 133.901 61.0406 133.531 61.1903C133.16 61.3401 132.726 61.1741 132.566 60.8217C132.406 60.4692 132.347 60.5787 132.434 61.065C132.521 61.5513 132.296 61.944 131.934 61.9376C131.572 61.931 131.285 61.6562 131.298 61.3265C131.31 60.9967 130.841 61.157 130.256 61.6827C129.475 62.3842 129.411 62.7376 130.016 63.0116C130.489 63.2258 130.2 63.3401 129.338 63.2797C128.005 63.1864 127.113 61.8526 128.399 61.8753C128.683 61.88 129.135 61.2083 129.406 60.382C129.796 59.1887 130.275 58.8862 131.732 58.9119C132.741 58.9297 133.575 58.7178 133.585 58.441C133.595 58.1641 134.257 57.9492 135.057 57.9633C136.596 57.9904 136.983 58.7308 135.725 59.2393C134.382 59.7823 135.619 60.3728 137.904 60.2787C140.878 60.1561 141.606 59.6029 138.939 59.4926C136.861 59.4067 136.856 59.3989 138.651 59.0789L140.481 58.7528L138.869 58.1078C137.011 57.3648 136.766 56.4824 138.425 56.5116C139.048 56.5226 139.347 56.7546 139.09 57.0271C138.833 57.2996 138.969 57.5286 139.392 57.5361C139.815 57.5437 140.178 57.0966 140.198 56.5429C140.221 55.9331 140.72 55.5448 141.464 55.5579C142.533 55.5768 142.513 55.4831 141.309 54.8371C140.204 54.2441 139.847 54.224 139.538 54.7369C139.303 55.1269 138.621 55.2375 137.802 55.0183C136.535 54.6792 136.53 54.6074 137.716 53.8266C138.411 53.3695 139.446 53.0039 140.017 53.0139C140.954 53.0305 141.397 52.4269 141.201 51.3979C141.161 51.1894 141.638 51.0278 142.261 51.0388C142.884 51.0498 143.214 50.8446 142.993 50.5828C142.472 49.9633 143.872 49.4008 144.843 49.8402C145.355 50.0724 145.315 50.3999 144.716 50.8751C144.085 51.3749 144.068 51.5744 144.654 51.5847C145.506 51.5998 145.759 50.9946 145.572 49.3909C145.426 48.1374 146.822 47.6106 150.159 47.6601C151.764 47.6838 152.818 47.4712 152.723 47.1427C152.62 46.7861 154.134 46.6052 156.922 46.6412C159.32 46.6722 161.7 46.4824 162.21 46.2194C162.721 45.9564 164.085 45.8899 165.243 46.0715C166.74 46.3067 167.629 46.1591 168.326 45.5591C168.864 45.0955 169.008 44.8823 168.645 45.0852C168.282 45.2881 167.097 44.4739 166.012 43.2759C164.927 42.0778 164.03 41.3025 164.019 41.553C164.008 41.8035 163.361 41.5869 162.58 41.0718C161.799 40.5566 161.179 39.8872 161.202 39.5843C161.226 39.2813 161.563 39.4358 161.953 39.9274C162.342 40.4191 163.201 40.8309 163.86 40.8426C164.747 40.8582 164.852 40.7126 164.265 40.2846C163.828 39.9661 163.666 39.3776 163.905 38.9768C164.261 38.3809 164.447 38.3725 164.93 38.9304C165.364 39.4326 165.526 39.3469 165.544 38.6057C165.576 37.3466 163.925 35.6964 163.116 36.1782C162.785 36.3758 162.762 36.2548 163.067 35.9094C163.371 35.564 163.92 35.4171 164.286 35.5829C164.652 35.7487 164.96 35.6579 164.97 35.381C164.98 35.1042 164.681 34.7383 164.305 34.5679C163.386 34.1517 164.298 32.6952 165.971 31.9049C166.717 31.5529 167.126 31.0258 166.88 30.7337C166.589 30.388 167.03 30.3397 168.145 30.5953C169.544 30.916 169.696 30.864 168.974 30.3113C167.9 29.489 167.867 27.967 168.919 27.7446C169.641 27.5918 169.839 26.7247 169.614 24.7002C169.555 24.1737 168.904 23.8031 168.002 23.7826C167.132 23.7627 166.826 23.5968 167.282 23.3922C168.426 22.8783 169.166 21.3714 168.436 21.0407C168.094 20.8856 167.656 21.0405 167.464 21.3852C167.272 21.7298 166.929 21.8886 166.702 21.7381C166.474 21.5875 166.589 21.1453 166.957 20.7552C167.522 20.1571 167.856 20.1972 169.09 21.0114C170.518 21.9542 170.555 21.9543 170.645 21.019C170.697 20.4882 170.891 20.3445 171.081 20.6968C171.27 21.0464 171.759 21.3383 172.168 21.3456C172.578 21.3531 172.738 21.0184 172.525 20.6024C172.312 20.1864 172.37 19.8841 172.654 19.9305C172.937 19.977 174.106 19.7665 175.25 19.463C176.395 19.1594 177.626 19.0446 177.986 19.2078C178.347 19.371 178.651 19.2513 178.662 18.9418C178.673 18.6322 178.982 18.5147 179.349 18.6805C179.715 18.8464 180.215 18.7697 180.46 18.5101C180.705 18.2505 181.471 18.05 182.162 18.0645C184.169 18.1067 185.42 17.8514 188.77 16.7159C190.5 16.1296 192.369 15.6578 192.922 15.6676C193.476 15.6774 194.072 15.4119 194.247 15.0776C194.587 14.4276 201.375 14.2299 201.351 14.8708C201.345 15.075 202.243 15.0846 203.35 14.8921C205.531 14.5129 210.151 14.6731 213.494 15.244C215.228 15.5402 215.763 15.3925 216.586 14.3894C217.133 13.7224 217.395 12.9557 217.167 12.6856C216.581 11.9893 211.678 11.4273 203.67 11.1384C199.876 11.0016 196.059 10.6044 195.189 10.2557C194.318 9.90705 193.346 9.64712 193.029 9.67808C192.711 9.70902 191.265 9.68657 189.814 9.62809C187.828 9.54822 187.091 9.27131 186.833 8.50849C186.554 7.68528 186.852 7.49846 188.421 7.51312C190.265 7.53035 190.29 7.4973 188.985 6.77602C187.762 6.10072 188.321 6.04573 194.272 6.25574C197.932 6.3849 200.922 6.62936 200.918 6.79895C200.914 6.96856 201.812 7.05055 202.914 6.98118C207.849 6.67061 215.373 6.3732 218.153 6.3788C219.824 6.38258 221.039 6.20311 220.852 5.98094C220.664 5.75876 221.104 5.55389 221.829 5.52566C224.693 5.41403 225.381 5.33367 226.649 4.96253C227.374 4.75045 228.624 3.73781 229.427 2.71222C230.91 0.819192 233.287 -0.254389 233.737 0.765711C233.909 1.15577 234.313 1.14343 235.08 0.724732C235.775 0.345096 236.35 0.31047 236.648 0.630111C237.146 1.16221 248.87 1.37352 249.643 0.864462C249.891 0.701046 250.472 0.796058 250.934 1.07559C251.825 1.61503 256.213 1.60833 257.556 1.06546C257.996 0.887639 259.477 0.977926 260.846 1.26609C262.216 1.55428 269.367 2.01131 276.736 2.28173C284.106 2.55215 294.383 2.96053 299.573 3.18924C327.547 4.42195 336.09 4.70215 353.494 4.95773C367.166 5.15851 372.563 5.39795 372.549 5.80307C372.534 6.21186 372.797 6.22153 373.499 5.83799C374.481 5.30242 378.86 5.23753 391.461 5.57193C395.256 5.67264 398.689 5.74189 399.09 5.72579C399.49 5.7097 403.423 5.54392 407.828 5.3574C412.234 5.17088 416.379 5.14499 417.04 5.29986C417.7 5.45475 418.419 5.39213 418.637 5.16076C418.856 4.92939 421.753 4.73816 425.076 4.73584C428.399 4.73395 432.996 4.53592 435.292 4.29668C437.587 4.05747 443.648 3.83423 448.761 3.80059C453.873 3.76681 460.348 3.69378 463.15 3.63815C465.951 3.58251 468.847 3.76624 469.584 4.04642C470.322 4.3266 470.752 4.34939 470.539 4.09705C470.321 3.83715 473.203 3.71081 477.188 3.80562C481.057 3.89769 485.377 3.72253 486.787 3.4164C488.723 2.99616 489.477 3.00475 489.865 3.45152C490.216 3.85612 490.388 3.86799 490.409 3.48899C490.429 3.14789 492.468 2.92717 495.713 2.91475C502.924 2.88721 524.873 3.22229 529.322 3.42787C531.318 3.52013 535.899 3.50651 539.502 3.39778C548.194 3.13528 561.684 3.2202 561.673 3.53735C561.658 3.92894 565.15 3.81208 570.986 3.2257C573.913 2.93156 577.187 2.86755 578.262 3.0835C580.778 3.58922 585.658 3.80062 585.672 3.40451C585.677 3.23659 586.582 3.1157 587.681 3.13585C608.006 3.50853 646.371 3.24089 647.666 2.71744C647.978 2.59122 648.226 2.68858 648.217 2.93384C648.208 3.17908 649.182 3.29764 650.38 3.19731C651.578 3.09698 653.129 3.19257 653.826 3.41011C655.429 3.91039 658.33 4.11425 657.983 3.7023C657.839 3.53135 663.344 3.53815 670.217 3.71745C677.09 3.89672 682.711 4.08218 682.71 4.12961C682.71 4.17702 684.749 4.29667 687.245 4.39548C689.74 4.49429 691.788 4.42917 691.794 4.25062C691.801 4.07214 692.945 4.12541 694.338 4.369C695.731 4.61259 697.018 4.65521 697.199 4.46372C697.38 4.27221 700.49 4.18068 704.11 4.26034C708.034 4.34664 710.704 4.20195 710.722 3.90198C710.74 3.6053 710.962 3.62745 711.265 3.95593C711.902 4.64643 717.393 4.7079 718.147 4.03305C718.516 3.70375 718.697 3.70696 718.692 4.04271C718.692 4.31969 719.911 4.54141 721.411 4.5355C722.911 4.52982 724.889 4.73451 725.805 4.99087C726.802 5.26968 728.016 5.26739 728.826 4.9852C730.132 4.5304 733.182 4.39051 748.876 4.0658C752.878 3.983 759.43 3.76917 763.435 3.59061C767.441 3.41206 776.441 3.33768 783.436 3.42533C790.431 3.51305 797.468 3.43762 799.075 3.25797C800.681 3.07827 809.517 3.02197 818.71 3.13284C840.302 3.39323 856.551 3.27255 863.023 2.80374C865.858 2.59841 871.95 2.15686 876.561 1.82251C881.172 1.48818 888.878 1.023 893.686 0.788785C898.493 0.554558 903.902 0.27546 905.705 0.168557C911.614 -0.181659 917.625 0.0183414 922.484 0.726797C925.548 1.17353 934.866 1.553 948.474 1.78517C960.141 1.98427 969.913 2.24538 970.189 2.36546C970.464 2.48557 982.783 2.94512 997.563 3.38669C1012.34 3.82827 1027.05 4.34231 1030.24 4.52903C1048.16 5.57735 1061.77 6.00893 1091.61 6.47543C1095.8 6.541 1100.38 6.68604 1101.77 6.79765C1104.79 7.03906 1118.76 7.72319 1131.89 8.27255C1160.27 9.45985 1170.86 9.84225 1189.98 10.3706C1201.57 10.6908 1212.19 11.0955 1213.58 11.27C1214.97 11.4446 1218.72 11.7166 1221.92 11.8744C1227.83 12.1664 1234.57 12.8382 1235.44 13.2212C1235.71 13.3376 1238.15 13.5903 1240.88 13.7828C1243.6 13.9752 1247.78 14.3827 1250.17 14.6882C1252.56 14.9938 1255.49 15.3542 1256.69 15.4891C1257.88 15.624 1261.51 16.2585 1264.75 16.8993C1267.99 17.54 1271.33 18.0762 1272.16 18.0909C1272.99 18.1056 1273.67 18.3064 1273.66 18.5371C1273.65 18.7678 1274.05 18.9663 1274.55 18.9783C1279.46 19.0955 1291.18 20.077 1293.02 20.5244C1294.3 20.8361 1296.02 21.7757 1296.83 22.6124C1298.44 24.2647 1302.8 25.9577 1306.81 26.4922C1311.84 27.161 1320.53 27.8756 1322.36 27.7694C1323.38 27.7098 1324.21 27.9053 1324.2 28.2039C1324.19 28.5025 1324.41 28.5976 1324.68 28.4153C1324.96 28.2329 1325.85 28.5394 1326.67 29.0962C1327.48 29.6531 1330.32 30.9454 1332.99 31.968C1336.87 33.4578 1338.85 33.8856 1342.98 34.1207C1348.43 34.4311 1349.39 34.8795 1348.78 36.8218C1348.39 38.0597 1345.46 39.0282 1342.28 38.972C1341.36 38.9558 1340.4 39.1655 1340.15 39.438C1339.89 39.7105 1338.57 39.9139 1337.21 39.89C1333.39 39.8224 1327.37 40.742 1327.37 41.395C1327.37 42.4687 1332.86 43.8777 1338.27 44.1895C1341.2 44.3584 1348 44.7083 1353.39 44.967C1364.28 45.4895 1365.42 45.6466 1365.96 46.6988C1366.75 48.2503 1356.58 53.2998 1348.29 55.4685C1345.62 56.1683 1344.26 56.8839 1343.33 58.0861C1341.72 60.1493 1342.42 61.1563 1346.73 63.0178C1348.4 63.74 1349.76 64.6774 1349.74 65.1007C1349.73 65.5241 1350.19 66.2189 1350.78 66.6448C1352.44 67.8524 1351.98 69.0641 1349.52 70.0135C1348.28 70.492 1345.83 71.7766 1344.08 72.8681C1341.4 74.5297 1340.3 74.8726 1337.31 74.9751C1334.69 75.0652 1333.41 75.3849 1332.49 76.1891C1331.8 76.7896 1331.38 77.4599 1331.57 77.6786C1331.75 77.8974 1331.57 78.0704 1331.16 78.0632C1330.75 78.0557 1330.01 78.553 1329.52 79.1677C1329.03 79.7823 1328.88 80.1304 1329.19 79.9413C1329.96 79.4706 1331.91 80.9676 1331.33 81.5825C1331.06 81.8687 1331.42 81.9789 1332.19 81.8449C1332.91 81.7178 1332.19 82.0415 1330.56 82.5644C1328.94 83.0871 1326.58 83.5024 1325.3 83.4872C1324.03 83.472 1322.14 83.6657 1321.11 83.9176C1319.72 84.2544 1319.23 84.2123 1319.23 83.7585C1319.23 83.4191 1318.89 83.5234 1318.47 83.9904C1317.04 85.5944 1318.35 87.3771 1321.95 88.7207C1323.81 89.4168 1325.83 90.5331 1326.42 91.2012C1327.02 91.8693 1328.79 92.7059 1330.35 93.0603C1336.17 94.3809 1336.98 97.006 1331.86 97.927C1328.67 98.4995 1327.1 100.1 1328 101.865C1328.46 102.783 1328.44 103.199 1327.92 103.19C1326.57 103.167 1325.24 104.398 1325.28 105.637C1325.31 106.862 1325.25 106.882 1319.09 107.754C1318.09 107.897 1316.26 108.589 1315.04 109.293C1313.81 109.998 1311.9 110.882 1310.78 111.259C1309.67 111.636 1308.75 112.27 1308.73 112.669C1308.7 113.604 1306.06 114.525 1302.92 114.7C1299.48 114.891 1298.06 115.485 1297.87 116.813C1297.71 117.92 1300.5 120.335 1301.97 120.361C1302.87 120.377 1306.89 123.343 1306.86 123.973C1306.83 124.835 1304.19 125.38 1299.11 125.574C1296.34 125.68 1292.43 125.978 1290.42 126.238C1287.09 126.667 1275.22 127.852 1272.52 128.025C1271.38 128.097 1270.82 129.885 1271.93 129.905C1272.25 129.911 1272.18 130.333 1271.76 130.843C1271.34 131.353 1271.22 131.933 1271.49 132.131C1272.41 132.795 1271.84 139.185 1270.81 139.893C1270.27 140.263 1268.32 140.609 1266.48 140.663C1263.51 140.749 1261.52 141.505 1262.17 142.301C1262.3 142.455 1261.93 142.865 1261.36 143.212C1260.79 143.559 1260.33 143.676 1260.34 143.471C1260.35 143.266 1259.96 143.358 1259.48 143.676C1258.84 144.097 1258.35 144.099 1257.66 143.683C1256.97 143.267 1256.12 143.272 1254.52 143.701C1250.81 144.689 1251.96 146.226 1256.94 146.938C1262.51 147.735 1263.75 148.098 1262.88 148.674C1262.64 148.83 1257.47 148.944 1251.38 148.925C1238.44 148.887 1236.95 149.271 1235.76 152.947C1235.37 154.136 1234.25 155.945 1233.27 156.967C1231.64 158.655 1230.35 160.859 1230.23 162.161C1230.21 162.437 1229.09 162.717 1227.74 162.783C1226.06 162.864 1225.16 163.202 1224.89 163.86C1224.67 164.387 1224.2 164.689 1223.86 164.531C1223.51 164.373 1223.21 164.475 1223.2 164.756C1223.19 165.038 1221.68 165.842 1219.85 166.544C1214.64 168.535 1213.87 170.221 1217.66 171.297C1219.44 171.801 1219.51 172.18 1218.23 174.289C1217.29 175.835 1219.65 176.877 1227.44 178.358C1234.97 179.793 1237.07 180.737 1234.86 181.701C1233.49 182.299 1223.65 181.538 1208.16 179.636C1201.15 178.775 1198.19 179.116 1196.56 180.97C1194.93 182.819 1193.26 183.345 1188.43 183.525C1184.42 183.673 1180.65 184.98 1180.61 186.236C1180.58 187.006 1183.78 187.789 1187.49 187.92C1190.27 188.019 1193.55 189.403 1191.91 189.794C1191.4 189.916 1190.49 190.344 1189.88 190.743C1189.27 191.143 1188.78 191.335 1188.79 191.17C1188.81 190.561 1184.33 192.392 1183.43 193.363C1182.3 194.573 1178.47 196.2 1176.97 196.112C1173.23 195.895 1168.25 196.148 1168.23 196.556C1168.2 197.337 1171.95 199.638 1172.74 199.321C1173.13 199.162 1173.22 199.273 1172.95 199.569C1172.67 199.865 1172.77 200.257 1173.18 200.441C1173.58 200.625 1173.71 200.993 1173.46 201.259C1173.21 201.524 1173.4 202.088 1173.88 202.512C1175.25 203.716 1173.85 204.173 1168.3 204.34C1165.5 204.425 1161.73 204.691 1159.92 204.933C1158.12 205.175 1152.04 205.781 1146.42 206.279C1140.81 206.778 1134.38 207.586 1132.13 208.075C1129.84 208.574 1126.08 208.928 1123.55 208.884C1121.07 208.84 1116.66 209.223 1113.75 209.734C1108.75 210.613 1107.04 210.625 1083.03 209.95C1069.05 209.556 1054.84 209.086 1051.44 208.904C1042.6 208.43 1031.74 207.693 1030.24 207.467C1029.54 207.36 1021.04 206.979 1011.36 206.619C997.509 206.104 991.647 206.095 983.91 206.577C978.499 206.914 968.556 207.23 961.815 207.28C955.073 207.329 948.361 207.448 946.9 207.546C941.856 207.881 924.556 208.374 914.405 208.47C908.804 208.524 898.656 208.683 891.852 208.825C885.049 208.966 871.303 209.076 861.306 209.069C851.309 209.062 842.146 209.114 840.943 209.184C839.741 209.254 831.525 209.329 822.686 209.35C813.847 209.372 805.664 209.453 804.503 209.53C802.268 209.678 796.763 209.843 777.281 210.344C761.99 210.738 750.507 211.261 741.026 211.997C736.903 212.317 732.281 212.557 730.754 212.53C729.227 212.503 727.022 212.677 725.854 212.916C724.686 213.156 721.663 213.433 719.137 213.533C716.61 213.632 711.358 214.107 707.465 214.587C703.571 215.067 698.42 215.547 696.017 215.652C693.613 215.757 689.187 216.02 686.18 216.236C683.172 216.453 678.746 216.709 676.343 216.805C673.94 216.902 668.416 217.267 664.067 217.617C659.718 217.967 653.487 218.341 650.222 218.447C646.956 218.554 642.404 218.778 640.106 218.946C637.808 219.113 631.914 219.224 627.009 219.193C622.104 219.163 615.631 219.301 612.624 219.501C606.689 219.895 594.059 220.148 584.247 220.067C580.849 220.039 576.591 220.181 574.784 220.383C572.977 220.584 560.54 220.676 547.147 220.587C533.754 220.498 522.09 220.513 521.227 220.62C520.365 220.728 513.325 220.857 505.585 220.908C497.844 220.958 489.873 221.042 487.872 221.094C485.87 221.146 478.506 221.226 471.506 221.272C464.506 221.317 455.994 221.453 452.591 221.574C449.187 221.695 446.078 221.727 445.681 221.646C445.284 221.565 440.209 221.66 434.403 221.857C428.598 222.054 420.573 222.282 416.571 222.364C412.569 222.446 408.147 222.586 406.744 222.674C405.341 222.763 399.775 222.903 394.375 222.986C388.975 223.068 384.39 223.203 384.185 223.286C383.98 223.368 379.721 223.51 374.719 223.6C369.717 223.691 364.967 223.844 364.163 223.941C362.692 224.119 311.199 223.864 288.924 223.569C282.329 223.481 271.381 223.146 264.595 222.826ZM117.134 157.91C117.497 157.9 117.206 157.419 116.489 156.841C115.373 155.941 114.455 155.798 110.109 155.847C107.318 155.878 104.909 156.143 104.757 156.436C104.36 157.204 109.367 158.15 113.2 158.031C115.002 157.975 116.772 157.92 117.134 157.91ZM135.29 130.719C135.294 130.597 134.971 130.492 134.571 130.485C134.172 130.478 133.836 130.712 133.825 131.005C133.814 131.298 134.138 131.404 134.543 131.24C134.949 131.076 135.285 130.842 135.29 130.719ZM98.7848 115.048C98.7889 114.94 98.2896 114.707 97.6755 114.531C97.0352 114.348 96.7404 114.427 96.9845 114.717C97.3936 115.202 98.7698 115.456 98.7848 115.048ZM107.458 99.1471C106.758 98.641 106.673 98.6974 107.041 99.4217C107.295 99.923 107.691 100.209 107.921 100.058C108.15 99.9074 107.942 99.4973 107.458 99.1471ZM113.493 93.2094C112.793 92.7033 112.708 92.7596 113.075 93.484C113.33 93.9852 113.726 94.2718 113.956 94.1207C114.185 93.9697 113.977 93.5596 113.493 93.2094ZM108.059 90.2257C107.822 89.9445 107.484 89.7119 107.308 89.7087C107.132 89.7059 106.979 89.9296 106.969 90.2065C106.96 90.4833 107.297 90.7159 107.72 90.7234C108.143 90.731 108.296 90.5069 108.059 90.2257ZM137.779 66.7329C137.26 66.5782 136.632 66.585 136.385 66.748C136.137 66.911 136.562 67.0376 137.329 67.0292C138.176 67.0197 138.353 66.9038 137.779 66.7329ZM137.691 65.4123C136.603 64.757 134.88 62.7649 134.901 62.1863C134.908 62.0102 135.401 62.1615 135.997 62.5224C137.41 63.3774 138.267 62.8044 137.105 61.7823C136.083 60.8837 134.198 61.5479 134.151 62.823C134.136 63.2207 133.869 63.4306 133.558 63.2894C133.246 63.1483 132.927 63.4692 132.849 64.0027C132.755 64.6525 133.173 64.9809 134.116 64.9975C134.89 65.0113 135.516 65.2489 135.506 65.5258C135.496 65.8026 136.223 66.0349 137.123 66.042C138.526 66.053 138.607 65.9636 137.691 65.4123ZM133.371 64.2586C133.375 64.1365 133.711 63.9024 134.117 63.7384C134.523 63.5743 134.846 63.68 134.836 63.9731C134.825 64.2663 134.489 64.5005 134.089 64.4934C133.69 64.4868 133.366 64.3807 133.371 64.2586ZM146.606 54.011C146.674 53.3888 146.56 53.1616 146.354 53.506C146.148 53.8503 145.689 54.0004 145.334 53.8395C144.978 53.6786 144.869 53.902 145.092 54.3358C145.68 55.4847 146.465 55.3163 146.606 54.011ZM142.884 53.534C143.698 52.6712 142.814 52.4699 141.787 53.2842C141.196 53.7524 141.131 54.0402 141.612 54.0487C142.037 54.0563 142.609 53.8246 142.884 53.534ZM167.104 36.6717C167.108 36.5629 166.626 36.3348 166.032 36.1649C165.438 35.9949 164.945 36.0753 164.935 36.3435C164.925 36.6116 165.407 36.8397 166.007 36.8502C166.606 36.8608 167.1 36.7804 167.104 36.6717ZM44.4616 168.715C44.4712 168.455 44.8112 168.108 45.2171 167.944C45.623 167.779 45.9422 167.998 45.9263 168.43C45.9104 168.862 45.5704 169.209 45.1708 169.202C44.7712 169.195 44.452 168.976 44.4616 168.715ZM75.6063 127.848C76.0393 127.563 76.8188 127.437 77.3385 127.567C77.8781 127.702 77.5403 127.924 76.5513 128.085C75.3346 128.283 75.0534 128.212 75.6063 127.848ZM85.9439 128.116C85.1979 127.763 85.1489 127.592 85.7828 127.554C87.3806 127.458 87.7698 127.385 88.6607 127.014C89.1403 126.815 89.7595 126.921 90.0368 127.25C90.3516 127.624 90.2309 127.708 89.7152 127.475C89.226 127.253 88.8778 127.42 88.8607 127.885C88.8282 128.771 87.5432 128.872 85.9439 128.116ZM82.2442 126.916C82.8081 126.545 83.3393 126.527 83.8001 126.863C84.2609 127.199 83.9686 127.391 82.9439 127.426C81.7721 127.467 81.5994 127.341 82.2442 126.916ZM100.801 119.533C100.817 119.102 101.152 118.895 101.545 119.073C101.938 119.251 102.252 119.61 102.243 119.87C102.233 120.131 101.898 120.338 101.499 120.331C101.099 120.324 100.785 119.965 100.801 119.533ZM101.919 111.135C103.161 109.578 103.287 109.534 103.114 110.719C103.03 111.296 102.528 111.874 101.998 112.005C101.23 112.194 101.214 112.018 101.919 111.135ZM106.923 92.7445C106.315 92.4692 106.666 92.2383 108.009 92.0298C110.444 91.6519 110.909 91.8897 109.146 92.6102C108.417 92.9077 107.417 92.9682 106.923 92.7445ZM122.857 58.954C123.104 58.791 123.732 58.7842 124.251 58.9389C124.825 59.1098 124.648 59.226 123.801 59.2352C123.034 59.2437 122.609 59.117 122.857 58.954ZM125.111 56.979C125.358 56.816 125.986 56.8092 126.505 56.9639C127.078 57.1348 126.902 57.251 126.055 57.2603C125.288 57.2688 124.863 57.1421 125.111 56.979ZM138.287 50.7581C138.275 50.2269 138.458 49.9327 138.693 50.1042C138.928 50.2757 138.938 50.7103 138.715 51.07C138.468 51.4674 138.301 51.3451 138.287 50.7581ZM164.69 23.2275C164.046 22.9228 163.964 22.7233 164.484 22.7279C164.96 22.7326 165.543 22.9655 165.78 23.2467C166.314 23.8815 166.063 23.8771 164.69 23.2275Z" fill="#FBE6EA"/>
</svg>
